# ProBuilder 4.2.3
# https://unity3d.com/unity/features/worldbuilding/probuilder
# 22.03.2020 17:37:29

mtllib ./USB_flash_red.mtl
o USB flash red

g Cube
v -4.0125 0.20625 3.52
v -4.0375 0.20625 3.52
v -4.0125 0.21875 3.52
v -4.0375 0.21875 3.52
v -4.0375 0.20625 3.495
v -4.0375 0.21875 3.495
v -4.0125 0.20625 3.495
v -4.0125 0.21875 3.495

vt 0 0
vt -0.025 0
vt 0 0.0125
vt -0.025 0.0125
vt 0.025 0
vt 0.025 0.0125
vt 0 -0.025
vt 0.025 -0.025
vt -0.025 -0.025

vn 0 0 1
vn -1 0 0
vn 0 0 -1
vn 1 0 0
vn 0 1 0
vn 0 -1 0

usemtl USB-grey
f 3/3/1 2/2/1 1/1/1
f 3/3/1 4/4/1 2/2/1
f 4/3/2 5/2/2 2/1/2
f 4/3/2 6/4/2 5/2/2
f 6/6/3 7/1/3 5/5/3
f 6/6/3 8/3/3 7/1/3
f 8/6/4 1/1/4 7/5/4
f 8/6/4 3/3/4 1/1/4
f 8/7/5 4/5/5 3/1/5
f 8/7/5 6/8/5 4/5/5
f 1/1/6 5/9/6 7/7/6
f 1/1/6 2/2/6 5/9/6

g Cube
v -4 0.2 3.5
v -4.05 0.2 3.5
v -4 0.225 3.5
v -4.05 0.225 3.5
v -4.044717 0.2073224 3.404788
v -4.044717 0.2176776 3.404788
v -4.005283 0.2073224 3.404788
v -4.005283 0.2176776 3.404788

vt 0 0
vt -0.05 0
vt 0 0.025
vt -0.05 0.025
vt 0.002769926 0
vt -0.09258802 0.007322416
vt 0.002769926 0.025
vt -0.09258802 0.01767759
vt 0.04471731 0.007322416
vt 0.005282879 0.007322416
vt 0.04471731 0.01767759
vt 0.005282879 0.01767759
vt 0.09535795 0.007322416
vt 0.09535795 0.01767759
vt 0 0.001917009
vt 0.05 0.001917009
vt 0.005282879 -0.09357566
vt 0.04471731 -0.09357566
vt -0.005282879 -0.09549267
vt -0.04471731 -0.09549267

vn 0 0 1
vn -0.9984643 0 -0.05539852
vn 0 0 -1
vn 0.9984642 0 -0.05540051
vn 0 0.9970557 -0.07668034
vn 0 -0.9970558 -0.0766804

usemtl USB-red
f 11/12/7 10/11/7 9/10/7
f 11/12/7 12/13/7 10/11/7
f 12/16/8 13/15/8 10/14/8
f 12/16/8 14/17/8 13/15/8
f 14/20/9 15/19/9 13/18/9
f 14/20/9 16/21/9 15/19/9
f 16/23/10 9/10/10 15/22/10
f 16/23/10 11/12/10 9/10/10
f 16/26/11 12/25/11 11/24/11
f 16/26/11 14/27/11 12/25/11
f 9/10/12 13/29/12 15/28/12
f 9/10/12 10/11/12 13/29/12

